<svg xmlns="http://www.w3.org/2000/svg" width="296.406" height="200.422" viewBox="0 0 296.406 200.422">
  <g id="Group_48442" data-name="Group 48442" transform="translate(-72.565 -184)">
    <g id="Group_47614" data-name="Group 47614" transform="translate(75.738 194.774)">
      <g id="Group_47613" data-name="Group 47613">
        <path id="Path_40213" data-name="Path 40213" d="M653.805,248.45c-22.686-7.775-53.4-46.669-40.916-84.588,7.1-21.573,29.392-23.18,46.915-26.764,24.35-4.98,35.311-20.818,51.438-40.312,18.021-21.78,58.95-47.226,95.152-13.324,9.748,9.13,11.3,26.785,23.881,39.18,12.651,12.465,29.148,12.521,36.572,37.2,5.785,19.227-19.12,59.23-35.994,71.152C799.642,253.042,704.964,265.982,653.805,248.45Z" transform="translate(-610.006 -66.973)" fill="#fdf8dd"/>
      </g>
    </g>
    <g id="Group_47856" data-name="Group 47856" transform="translate(72.565 184)">
      <g id="Group_47846" data-name="Group 47846" transform="translate(5.728 79.428)">
        <g id="Group_47845" data-name="Group 47845">
          <g id="Group_47844" data-name="Group 47844">
            <path id="Path_40249" data-name="Path 40249" d="M612.476,139.3l-.376-.226c4.443-7.413,11.6-12.441,22.526-15.826l.13.42C623.941,127.018,616.862,131.986,612.476,139.3Z" transform="translate(-612.1 -123.248)" fill="#2e4882"/>
          </g>
        </g>
      </g>
      <g id="Group_47849" data-name="Group 47849" transform="translate(0 74.523)">
        <g id="Group_47848" data-name="Group 47848">
          <g id="Group_47847" data-name="Group 47847">
            <path id="Path_40250" data-name="Path 40250" d="M607.819,143.069l-.414-.15c5.736-15.766,20.459-20.824,34.1-23.692l.09.431C628.073,122.5,613.481,127.506,607.819,143.069Z" transform="translate(-607.405 -119.227)" fill="#2e4882"/>
          </g>
        </g>
      </g>
      <g id="Group_47852" data-name="Group 47852" transform="translate(171.253 4.018)">
        <g id="Group_47851" data-name="Group 47851">
          <g id="Group_47850" data-name="Group 47850">
            <path id="Path_40251" data-name="Path 40251" d="M774.753,67.235c-10.081-5.154-18.617-6.542-26.863-4.37l-.112-.425c8.356-2.2,16.992-.8,27.175,4.4Z" transform="translate(-747.778 -61.436)" fill="#2e4882"/>
          </g>
        </g>
      </g>
      <g id="Group_47855" data-name="Group 47855" transform="translate(165.086)">
        <g id="Group_47854" data-name="Group 47854">
          <g id="Group_47853" data-name="Group 47853">
            <path id="Path_40252" data-name="Path 40252" d="M783.443,68.513c-11.668-7.41-25.608-14.019-40.529-6.832l-.19-.4c15.114-7.278,29.185-.619,40.955,6.858Z" transform="translate(-742.723 -58.142)" fill="#2e4882"/>
          </g>
        </g>
      </g>
    </g>
    <g id="Group_48147" data-name="Group 48147" transform="translate(151.931 226.367)">
      <g id="Group_48145" data-name="Group 48145" transform="translate(8.835)">
        <path id="Path_40325" data-name="Path 40325" d="M670.9,104.344l-.211-.351c1.139-.688,2.325-1.331,3.521-1.912a43.9,43.9,0,0,1,9.646-3.307,43.2,43.2,0,0,1,10.154-.978,42.657,42.657,0,0,1,10.1,1.405l-.1.4A42.22,42.22,0,0,0,694,98.206a42.841,42.841,0,0,0-10.058.966,43.586,43.586,0,0,0-9.557,3.277C673.2,103.025,672.026,103.662,670.9,104.344Z" transform="translate(-670.685 -97.788)" fill="#2e4882"/>
      </g>
      <g id="Group_48146" data-name="Group 48146" transform="translate(0 9.772)">
        <path id="Path_40326" data-name="Path 40326" d="M663.742,109.543l-.3-.281c.373-.4.772-.78,1.158-1.148.222-.212.444-.423.662-.64.194-.168.377-.331.56-.492.447-.394.909-.8,1.379-1.185l.259.317c-.464.379-.922.783-1.366,1.175q-.275.243-.551.486c-.211.209-.434.422-.659.636C664.5,108.776,664.108,109.153,663.742,109.543Z" transform="translate(-663.443 -105.798)" fill="#2e4882"/>
      </g>
    </g>
    <g id="Group_48309" data-name="Group 48309" transform="translate(-35.995 132)">
      <g id="Group_48308" data-name="Group 48308">
        <g id="Group_48304" data-name="Group 48304">
          <path id="Path_40594" data-name="Path 40594" d="M210.165,153.665v51.574H218.7V153.665Zm2.507,49.394h-.677V155.845h.677Zm2.1,0h-.676V155.845h.676Zm2.1,0h-.676V155.845h.676Z" fill="#ffd920"/>
          <rect id="Rectangle_16729" data-name="Rectangle 16729" width="12.89" height="2.358" transform="translate(207.988 151.31)" fill="#ffd920"/>
          <rect id="Rectangle_16730" data-name="Rectangle 16730" width="12.89" height="2.358" transform="translate(207.988 205.234)" fill="#ffd920"/>
        </g>
        <g id="Group_48305" data-name="Group 48305">
          <path id="Path_40595" data-name="Path 40595" d="M228.661,153.665v51.574H237.2V153.665Zm2.507,49.394h-.676V155.845h.676Zm2.1,0h-.676V155.845h.676Zm2.1,0h-.676V155.845h.676Z" fill="#ffd920"/>
          <rect id="Rectangle_16731" data-name="Rectangle 16731" width="12.89" height="2.358" transform="translate(226.484 151.31)" fill="#ffd920"/>
          <rect id="Rectangle_16732" data-name="Rectangle 16732" width="12.89" height="2.358" transform="translate(226.484 205.234)" fill="#ffd920"/>
        </g>
        <g id="Group_48306" data-name="Group 48306">
          <path id="Path_40596" data-name="Path 40596" d="M262.792,153.665v51.574h8.533V153.665Zm2.506,49.394h-.676V155.845h.676Zm2.1,0h-.676V155.845h.676Zm2.1,0h-.676V155.845h.676Z" fill="#ffd920"/>
          <rect id="Rectangle_16733" data-name="Rectangle 16733" width="12.89" height="2.358" transform="translate(260.614 151.31)" fill="#ffd920"/>
          <rect id="Rectangle_16734" data-name="Rectangle 16734" width="12.89" height="2.358" transform="translate(260.614 205.234)" fill="#ffd920"/>
        </g>
        <g id="Group_48307" data-name="Group 48307">
          <path id="Path_40597" data-name="Path 40597" d="M281.288,153.665v51.574h8.533V153.665Zm2.506,49.394h-.676V155.845h.676Zm2.1,0h-.677V155.845h.677Zm2.1,0h-.676V155.845h.676Z" fill="#ffd920"/>
          <rect id="Rectangle_16735" data-name="Rectangle 16735" width="12.89" height="2.358" transform="translate(279.11 151.31)" fill="#ffd920"/>
          <rect id="Rectangle_16736" data-name="Rectangle 16736" width="12.89" height="2.358" transform="translate(279.11 205.234)" fill="#ffd920"/>
        </g>
      </g>
      <rect id="Rectangle_16737" data-name="Rectangle 16737" width="91.144" height="3.332" transform="translate(204.422 147.978)" fill="#ffd920"/>
      <path id="Path_40598" data-name="Path 40598" d="M204.422,147.978h91.144v.69l-91.144.415Z" fill="#fff"/>
      <rect id="Rectangle_16738" data-name="Rectangle 16738" width="91.144" height="3.332" transform="translate(204.422 207.592)" fill="#ffd920"/>
      <path id="Path_40599" data-name="Path 40599" d="M204.422,209.942l91.144.491v.491H204.422Z" fill="#c7c7c7"/>
      <rect id="Rectangle_16739" data-name="Rectangle 16739" width="96.15" height="3.332" transform="translate(201.919 210.924)" fill="#ffd920"/>
      <path id="Path_40600" data-name="Path 40600" d="M300.852,145.166v2.81H199.138v-2.81l50.852-26.556Z" fill="#ffd920"/>
      <path id="Path_40601" data-name="Path 40601" d="M293.477,145.189c-29.048.15-60.331.576-89.3.576l2.078-1.081c10.961-5.714,32.767-17.053,43.743-22.729,12.741,6.795,30.934,16.6,43.484,23.234Zm0,0c-12.68-6.6-30.851-15.673-43.7-22.291h.432l-21.7,11.417-21.725,11.378-.264-1.074c28.008.008,58.825.433,86.964.57Z" fill="#fff"/>
    </g>
    <g id="Group_48263" data-name="Group 48263" transform="translate(145.262 142.115)">
      <path id="Path_40536" data-name="Path 40536" d="M222.439,136.76a18.017,18.017,0,0,1-24.883,18.774,15.111,15.111,0,0,1-24.039-.053,11.894,11.894,0,0,1-2.022.423,12.254,12.254,0,0,1-11.51-19.2,18.011,18.011,0,0,1,24.25-26.061,15.117,15.117,0,0,1,25.947,4.118,9.686,9.686,0,0,1,1.939-.437,9.889,9.889,0,0,1,8.5,16.474A17.556,17.556,0,0,1,222.439,136.76Z" fill="#fff" stroke="#263238" stroke-miterlimit="10" stroke-width="1"/>
    </g>
    <g id="Shield" transform="translate(210.288 202.376)">
      <g id="Group_48400" data-name="Group 48400" transform="translate(110.694 55.415)">
        <path id="Path_40710" data-name="Path 40710" d="M138.57,64.493s-2.036,16.3-5.382,19.969c-4.017,4.4-6.932,3.757-8.554,6.026a0,0,0,0,0,0,0c-1.622-2.272-4.537-1.625-8.558-6.029-3.346-3.668-5.379-19.969-5.379-19.969a61.1,61.1,0,0,0,13.936-9.078l0,0A61.215,61.215,0,0,0,138.57,64.493Z" transform="translate(-110.694 -55.415)" fill="#ffd920"/>
        <path id="Path_40711" data-name="Path 40711" d="M161.9,64.5s-2.036,16.3-5.382,19.969c-4.017,4.4-6.932,3.757-8.554,6.026V55.424A61.215,61.215,0,0,0,161.9,64.5Z" transform="translate(-134.027 -55.421)" opacity="0.1"/>
        <g id="Group_48398" data-name="Group 48398" transform="translate(2.163 2.721)">
          <path id="Path_40712" data-name="Path 40712" d="M116.478,70.362s1.72,13.77,4.546,16.87c3.4,3.723,5.86,3.176,7.231,5.093,1.371-1.917,3.835-1.371,7.231-5.093,2.827-3.1,4.543-16.87,4.543-16.87a51.683,51.683,0,0,1-11.774-7.669A51.752,51.752,0,0,1,116.478,70.362Z" transform="translate(-116.478 -62.692)" fill="#ffd920"/>
          <path id="Path_40713" data-name="Path 40713" d="M116.477,70.36s1.72,13.77,4.548,16.871c3.4,3.721,5.86,3.175,7.229,5.094V62.69A51.649,51.649,0,0,1,116.477,70.36Z" transform="translate(-116.477 -62.69)" fill="#fff" opacity="0.2"/>
        </g>
        <g id="Group_48399" data-name="Group 48399" transform="translate(10.405 11.873)">
          <rect id="Rectangle_16751" data-name="Rectangle 16751" width="7.066" height="6.41" transform="translate(0 3.71)" fill="#fff"/>
          <path id="Path_40714" data-name="Path 40714" d="M146.06,92.85h-.718V89.987a2.107,2.107,0,1,0-4.214,0V92.85h-.718V89.987a2.826,2.826,0,0,1,5.651,0Z" transform="translate(-139.701 -87.162)" fill="#fff"/>
          <path id="Path_40715" data-name="Path 40715" d="M147.156,103.926l.3,1.4H146.2l.3-1.4a.628.628,0,1,1,.664,0Z" transform="translate(-143.324 -96.932)" fill="#37474f"/>
        </g>
      </g>
    </g>
  </g>
</svg>
