<svg width="54" height="47" viewBox="0 0 54 47" fill="none" xmlns="http://www.w3.org/2000/svg">
<path d="M47.2608 20.8963V20.4086H47.1317L46.9825 20.7433L46.8341 20.4086H46.7046V20.8963H46.7963V20.5289L46.9358 20.8459H47.0308L47.1704 20.5281V20.8963H47.2608ZM46.4422 20.8963V20.4921H46.6074V20.4098H46.1854V20.4921H46.3506V20.8963H46.4422Z" fill="#F79410"/>
<path d="M32.5956 22.988H21.4298V3.23517H32.5958L32.5956 22.988Z" fill="#FF5F00"/>
<path d="M22.1377 13.112C22.1377 9.10514 24.0436 5.53581 27.0114 3.23557C24.7649 1.49185 21.9863 0.545474 19.1254 0.549635C12.078 0.549635 6.3653 6.17391 6.3653 13.112C6.3653 20.0501 12.078 25.6744 19.1254 25.6744C21.9864 25.6786 24.7651 24.7322 27.0116 22.9884C24.044 20.6886 22.1377 17.1191 22.1377 13.112Z" fill="#EB001B"/>
<path d="M47.6594 13.112C47.6594 20.0501 41.9467 25.6744 34.8993 25.6744C32.038 25.6785 29.2586 24.7321 27.0116 22.9884C29.9803 20.6882 31.8866 17.1191 31.8866 13.112C31.8866 9.10493 29.9801 5.53581 27.0114 3.23557C29.2584 1.4919 32.0379 0.545547 34.8991 0.549635C41.9465 0.549635 47.6594 6.17391 47.6594 13.112Z" fill="#F79E1B"/>
<path d="M43.2175 15.8615V15.9269H43.2796C43.2912 15.9271 43.3027 15.9242 43.3128 15.9186C43.3169 15.9158 43.3201 15.912 43.3223 15.9076C43.3245 15.9033 43.3255 15.8984 43.3253 15.8935C43.3255 15.8888 43.3245 15.884 43.3223 15.8797C43.3201 15.8755 43.3169 15.8718 43.3128 15.8691C43.3028 15.8632 43.2912 15.8603 43.2796 15.8608L43.2175 15.8615ZM43.2802 15.8151C43.3068 15.8135 43.3332 15.821 43.3547 15.8364C43.3634 15.8434 43.3703 15.8523 43.3748 15.8623C43.3793 15.8724 43.3814 15.8834 43.3809 15.8944C43.3813 15.9038 43.3796 15.9133 43.376 15.9221C43.3724 15.9308 43.3669 15.9388 43.3599 15.9453C43.3432 15.9595 43.3224 15.9681 43.3004 15.9697L43.3835 16.063H43.3195L43.243 15.9703H43.2182V16.063H43.1646V15.8153L43.2802 15.8151ZM43.2636 16.1485C43.2917 16.1487 43.3195 16.1431 43.3453 16.1321C43.3701 16.1216 43.3927 16.1065 43.4118 16.0877C43.431 16.0689 43.4463 16.0467 43.4569 16.0222C43.4787 15.9703 43.4787 15.912 43.4569 15.8601C43.4461 15.8357 43.4308 15.8135 43.4118 15.7947C43.3927 15.7759 43.3701 15.7608 43.3453 15.7503C43.3194 15.7398 43.2916 15.7346 43.2636 15.7349C43.2351 15.7346 43.2069 15.7399 43.1804 15.7503C43.1551 15.7606 43.132 15.7757 43.1124 15.7947C43.083 15.8244 43.0631 15.8619 43.0552 15.9027C43.0473 15.9434 43.0518 15.9856 43.068 16.0239C43.0781 16.0484 43.0932 16.0707 43.1124 16.0894C43.132 16.1083 43.1551 16.1234 43.1804 16.1337C43.2067 16.1448 43.235 16.1503 43.2636 16.1501M43.2636 15.6753C43.3367 15.6752 43.4069 15.7035 43.459 15.7539C43.4842 15.7781 43.5042 15.807 43.5179 15.8389C43.5321 15.8716 43.5394 15.9068 43.5394 15.9424C43.5394 15.978 43.5321 16.0132 43.5179 16.046C43.5039 16.0777 43.4839 16.1065 43.459 16.1309C43.4335 16.155 43.4038 16.1744 43.3714 16.1882C43.3373 16.2025 43.3006 16.2097 43.2636 16.2095C43.2261 16.2098 43.189 16.2025 43.1545 16.1882C43.1217 16.1747 43.0917 16.1553 43.0662 16.1309C43.0413 16.1056 43.0216 16.0758 43.0081 16.0432C42.9939 16.0105 42.9866 15.9752 42.9866 15.9396C42.9866 15.904 42.9939 15.8688 43.0081 15.8361C43.0219 15.8042 43.0419 15.7753 43.067 15.7511C43.0922 15.7263 43.1222 15.7068 43.1553 15.6938C43.1898 15.6795 43.227 15.6723 43.2644 15.6725M17.7968 14.7187C17.7968 14.2464 18.1111 13.8583 18.6249 13.8583C19.1158 13.8583 19.4471 14.2297 19.4471 14.7187C19.4471 15.2077 19.1158 15.579 18.6249 15.579C18.1111 15.579 17.7968 15.191 17.7968 14.7187ZM20.0068 13.3745H19.4132V13.702C19.2249 13.46 18.9394 13.3082 18.551 13.3082C17.7859 13.3082 17.1855 13.8989 17.1855 14.7193C17.1855 15.5397 17.7856 16.1304 18.551 16.1304C18.9392 16.1304 19.2249 15.9785 19.4132 15.7367V16.063H20.0061L20.0068 13.3745ZM40.0636 14.7187C40.0636 14.2464 40.378 13.8583 40.8919 13.8583C41.3834 13.8583 41.7142 14.2297 41.7142 14.7187C41.7142 15.2077 41.3834 15.579 40.8919 15.579C40.3781 15.579 40.0636 15.191 40.0636 14.7187ZM42.2743 12.2956H41.6802V13.702C41.492 13.46 41.2064 13.3082 40.818 13.3082C40.053 13.3082 39.4526 13.8989 39.4526 14.7193C39.4526 15.5397 40.0526 16.1304 40.818 16.1304C41.2064 16.1304 41.492 15.9785 41.6802 15.7367V16.063H42.2743V12.2956ZM27.3741 13.8307C27.7566 13.8307 28.0023 14.0668 28.065 14.4824H26.6486C26.712 14.0944 26.9511 13.8307 27.3741 13.8307ZM27.3861 13.3068C26.5861 13.3068 26.0264 13.8798 26.0264 14.7179C26.0264 15.5723 26.6085 16.129 27.4258 16.129C27.837 16.129 28.2135 16.028 28.5448 15.7524L28.2539 15.3194C28.0251 15.4995 27.7337 15.6005 27.4598 15.6005C27.0772 15.6005 26.7289 15.4261 26.6433 14.9423H28.6702C28.676 14.8696 28.682 14.7963 28.682 14.7177C28.676 13.8799 28.1501 13.3068 27.3861 13.3068ZM34.5524 14.7177C34.5524 14.2454 34.8668 13.8574 35.3806 13.8574C35.8715 13.8574 36.2028 14.2287 36.2028 14.7177C36.2028 15.2067 35.8715 15.5781 35.3806 15.5781C34.8668 15.5781 34.5524 15.19 34.5524 14.7177ZM36.7623 13.3745H36.1691V13.702C35.9801 13.46 35.6952 13.3082 35.3069 13.3082C34.5418 13.3082 33.9414 13.8989 33.9414 14.7193C33.9414 15.5397 34.5415 16.1304 35.3069 16.1304C35.6952 16.1304 35.9801 15.9785 36.1691 15.7367V16.063H36.7625L36.7623 13.3745ZM31.2003 14.7177C31.2003 15.5329 31.7767 16.1288 32.6566 16.1288C33.0677 16.1288 33.3416 16.0388 33.6379 15.8084L33.3528 15.3361C33.1299 15.4937 32.8959 15.5781 32.6376 15.5781C32.1638 15.5723 31.8153 15.2351 31.8153 14.7177C31.8153 14.2003 32.1638 13.8632 32.6376 13.8574C32.8952 13.8574 33.1292 13.9417 33.3528 14.0993L33.6379 13.627C33.3411 13.3966 33.0672 13.3066 32.6566 13.3066C31.7767 13.3066 31.2003 13.9024 31.2003 14.7177ZM38.8526 13.3066C38.5102 13.3066 38.2872 13.4643 38.133 13.7003V13.3745H37.5447V16.0615H38.139V14.5553C38.139 14.1106 38.3331 13.8636 38.7211 13.8636C38.8481 13.8618 38.9743 13.8848 39.0923 13.9312L39.2753 13.3804C39.1439 13.3295 38.9729 13.3066 38.8526 13.3066ZM22.9415 13.5882C22.6559 13.4029 22.2624 13.3071 21.8283 13.3071C21.1368 13.3071 20.6915 13.6334 20.6915 14.1673C20.6915 14.6054 21.023 14.8757 21.6334 14.96L21.9138 14.9993C22.2393 15.0443 22.393 15.1286 22.393 15.2804C22.393 15.4882 22.1768 15.6067 21.7708 15.6067C21.3597 15.6067 21.0629 15.4774 20.8629 15.3256L20.5839 15.7812C20.9094 16.0173 21.3206 16.13 21.7658 16.13C22.5542 16.13 23.011 15.7645 23.011 15.2529C23.011 14.7806 22.6515 14.5335 22.0574 14.4492L21.7776 14.4093C21.5207 14.3765 21.3147 14.3256 21.3147 14.1455C21.3147 13.949 21.5088 13.8308 21.8345 13.8308C22.1829 13.8308 22.5202 13.9602 22.6856 14.0612L22.9425 13.5889L22.9415 13.5882ZM30.6007 13.3076C30.2582 13.3076 30.0352 13.4652 29.8817 13.7013V13.3745H29.2934V16.0615H29.887V14.5553C29.887 14.1106 30.0811 13.8636 30.4691 13.8636C30.5962 13.8618 30.7224 13.8848 30.8404 13.9312L31.0233 13.3804C30.8919 13.3295 30.7209 13.3076 30.6007 13.3076ZM25.5353 13.3745H24.5646V12.5594H23.9645V13.3745H23.4109V13.9086H23.9645V15.1344C23.9645 15.7578 24.2104 16.1291 24.9126 16.1291C25.1702 16.1291 25.4669 16.0506 25.6552 15.9214L25.4837 15.421C25.3066 15.5221 25.1125 15.573 24.9581 15.573C24.6614 15.573 24.5646 15.3929 24.5646 15.1232V13.9091H25.5353V13.3745ZM16.6606 16.0622V14.3759C16.6606 13.7408 16.2495 13.3135 15.5867 13.3077C15.2383 13.302 14.8788 13.4088 14.6272 13.7858C14.4389 13.4878 14.1422 13.3077 13.7251 13.3077C13.4335 13.3077 13.1486 13.3921 12.9256 13.7067V13.3745H12.3315V16.0615H12.9302V14.5717C12.9302 14.1052 13.193 13.8574 13.5989 13.8574C13.993 13.8574 14.1924 14.1103 14.1924 14.5658V16.0612H14.7925V14.5713C14.7925 14.1049 15.0665 13.857 15.4605 13.857C15.8658 13.857 16.0592 14.11 16.0592 14.5654V16.0609L16.6606 16.0622Z" fill="#231F20"/>
<path d="M34.9281 30.2107C31.2142 30.2107 27.8953 32.053 27.8953 35.4569C27.8953 39.3605 33.7816 39.6301 33.7816 41.5912C33.7816 42.4169 32.7928 43.1561 31.1041 43.1561C28.7075 43.1561 26.9163 42.1232 26.9163 42.1232L26.1499 45.5581C26.1499 45.5581 28.2133 46.4306 30.9529 46.4306C35.0134 46.4306 38.2085 44.4977 38.2085 41.0357C38.2085 36.9108 32.2978 36.6492 32.2978 34.829C32.2978 34.1821 33.1094 33.4734 34.7933 33.4734C36.6931 33.4734 38.2433 34.2246 38.2433 34.2246L38.9933 30.9071C38.9933 30.9071 37.3067 30.2107 34.9281 30.2107ZM0.949372 30.4611L0.859421 30.9618C0.859421 30.9618 2.4219 31.2355 3.82913 31.7814C5.64104 32.4074 5.77015 32.7719 6.0753 33.9038L9.40057 46.1723H13.8582L20.7256 30.4611H16.2781L11.8655 41.1432L10.0649 32.0885C9.89975 31.0522 9.06328 30.4611 8.03941 30.4611H0.949372ZM22.5139 30.4611L19.0251 46.1723H23.266L26.7426 30.461L22.5139 30.4611ZM46.1672 30.4611C45.1445 30.4611 44.6027 30.9851 44.2051 31.9008L37.9918 46.1723H42.4392L43.2997 43.7937H48.7179L49.2412 46.1723H53.1653L49.7419 30.4611H46.1672ZM46.7456 34.7058L48.0639 40.6014H44.5321L46.7456 34.7058Z" fill="#1434CB"/>
</svg>
