<svg xmlns="http://www.w3.org/2000/svg" xmlns:xlink="http://www.w3.org/1999/xlink" width="250.961" height="201" viewBox="0 0 250.961 201">
  <defs>
    <clipPath id="clip-path">
      <rect width="250.961" height="201" fill="none"/>
    </clipPath>
    <clipPath id="clip-path-2">
      <circle id="Ellipse_4151" data-name="Ellipse 4151" cx="100.5" cy="100.5" r="100.5" transform="translate(0.457)" fill="#fff"/>
    </clipPath>
  </defs>
  <g id="Repeat_Grid_2" data-name="Repeat Grid 2" clip-path="url(#clip-path)">
    <g id="Group_46945" data-name="Group 46945" transform="translate(-70.053 -517)">
      <g id="Group_46944" data-name="Group 46944" transform="translate(70.053 533.042)">
        <g id="Group_46935" data-name="Group 46935" transform="translate(0 14.608)">
          <path id="Path_31320" data-name="Path 31320" d="M602.251,640.641q-.678.087-1.343.167a.926.926,0,0,1-.229-1.837h.006q1.2-.145,2.438-.31h.005a.926.926,0,0,1,.24,1.835Q602.806,640.569,602.251,640.641Zm3.558-.486a.925.925,0,0,1-.249-1.834q1.2-.173,2.434-.365a.925.925,0,0,1,.283,1.829q-1.243.192-2.452.367Zm-7.347.932-.02,0c-.839.089-1.671.171-2.471.243a.925.925,0,0,1-.166-1.844c.79-.071,1.612-.152,2.441-.24a.925.925,0,0,1,.216,1.838Zm12.23-1.686a.925.925,0,0,1-.266-1.831q1.2-.2,2.429-.407a.926.926,0,1,1,.313,1.824q-1.235.212-2.443.409Zm-17.146,2.125-.054.005c-.852.06-1.688.109-2.485.146a.926.926,0,1,1-.085-1.849c.782-.036,1.6-.084,2.442-.143a.925.925,0,0,1,.183,1.841Zm22.016-2.959a.925.925,0,0,1-.28-1.829q1.2-.214,2.424-.442a.925.925,0,0,1,.338,1.82q-1.23.228-2.436.444Zm-26.946,3.182a.993.993,0,0,1-.1.007c-.867.014-1.709.012-2.5-.005a.925.925,0,1,1,.041-1.85c.77.017,1.589.019,2.432,0a.926.926,0,0,1,.134,1.844Zm31.8-4.083a.925.925,0,0,1-.291-1.827q1.2-.23,2.42-.471a.925.925,0,0,1,.358,1.816q-1.225.241-2.429.473Zm4.846-.956a.925.925,0,0,1-.3-1.825q1.2-.243,2.415-.5a.925.925,0,1,1,.377,1.812q-1.22.254-2.424.5Zm4.837-1a.925.925,0,0,1-.309-1.823q1.2-.254,2.411-.517a.925.925,0,0,1,.392,1.809q-1.217.264-2.419.519C630.153,635.7,630.127,635.7,630.1,635.7Zm-46.42,5.924a.916.916,0,0,1-.187.005c-.9-.066-1.743-.159-2.522-.275a.925.925,0,0,1,.274-1.83c.732.11,1.535.2,2.384.26a.926.926,0,0,1,.051,1.841Zm51.247-6.97a.925.925,0,0,1-.316-1.822q1.2-.265,2.407-.537a.925.925,0,1,1,.406,1.806q-1.213.273-2.414.538C634.986,634.651,634.958,634.655,634.93,634.659Zm4.819-1.082a.926.926,0,0,1-.323-1.82q1.2-.273,2.4-.553a.925.925,0,0,1,.418,1.8q-1.21.28-2.41.554C639.809,633.568,639.779,633.573,639.749,633.577Zm4.812-1.115a.926.926,0,0,1-.328-1.819q1.2-.281,2.4-.568a.925.925,0,1,1,.429,1.8q-1.208.288-2.406.57C644.625,632.452,644.593,632.457,644.561,632.462Zm-65.748,8.4a.928.928,0,0,1-.362-.026,12.26,12.26,0,0,1-2.487-.954.925.925,0,1,1,.867-1.635,10.417,10.417,0,0,0,2.11.8.926.926,0,0,1-.128,1.811Zm70.553-9.547a.926.926,0,0,1-.333-1.818q1.195-.288,2.4-.582a.925.925,0,0,1,.439,1.8q-1.205.294-2.4.583A.872.872,0,0,1,649.366,631.317Zm4.8-1.171a.925.925,0,0,1-.338-1.817l2.4-.594a.925.925,0,0,1,.448,1.8q-1.2.3-2.4.6A.888.888,0,0,1,654.165,630.146Zm4.792-1.2a.926.926,0,0,1-.342-1.816l2.392-.605a.925.925,0,0,1,.456,1.794l-2.4.606A.927.927,0,0,1,658.957,628.951Zm4.787-1.217a.925.925,0,0,1-.346-1.815l2.389-.616a.926.926,0,1,1,.464,1.792l-2.393.617A.961.961,0,0,1,663.744,627.733Zm4.774-1.236a.925.925,0,0,1-.35-1.813l2.383-.625a.925.925,0,0,1,.471,1.79l-2.387.626A.892.892,0,0,1,668.518,626.5Zm-93.885,11.935a.925.925,0,0,1-.867-.374q-.082-.113-.156-.229a12.666,12.666,0,0,1-1.111-2.149.925.925,0,0,1,1.721-.68,10.8,10.8,0,0,0,.949,1.832c.03.047.062.093.094.139a.926.926,0,0,1-.631,1.462Zm98.656-13.19a.926.926,0,0,1-.353-1.813q1.193-.316,2.386-.635a.926.926,0,0,1,.478,1.788l-2.39.636A.975.975,0,0,1,673.289,625.242Zm4.779-1.276a.926.926,0,0,1-.357-1.812l2.391-.645a.925.925,0,0,1,.484,1.786q-1.2.325-2.394.646A.914.914,0,0,1,678.068,623.966Zm4.775-1.293a.926.926,0,0,1-.36-1.811l2.381-.651a.925.925,0,1,1,.489,1.785l-2.383.652A.948.948,0,0,1,682.844,622.673Zm4.763-1.307a.926.926,0,0,1-.363-1.81l2.379-.658a.925.925,0,1,1,.495,1.783l-2.381.659A.9.9,0,0,1,687.606,621.366Zm4.759-1.321a.925.925,0,0,1-.365-1.809l2.377-.665a.925.925,0,1,1,.5,1.782l-2.379.666A.927.927,0,0,1,692.365,620.045Zm4.755-1.335a.925.925,0,0,1-.368-1.809l2.375-.672a.925.925,0,1,1,.505,1.781l-2.377.673A.971.971,0,0,1,697.121,618.71Zm4.751-1.348a.925.925,0,0,1-.37-1.808l2.373-.678a.925.925,0,1,1,.51,1.779l-2.376.679A.937.937,0,0,1,701.872,617.362ZM572.894,633.869l-.034,0a.925.925,0,0,1-1.005-.838,8.584,8.584,0,0,1,.185-2.716.925.925,0,0,1,1.8.415,6.77,6.77,0,0,0-.146,2.133A.925.925,0,0,1,572.894,633.869ZM706.62,616a.925.925,0,0,1-.372-1.807l2.371-.685a.926.926,0,1,1,.514,1.778l-2.374.685A.911.911,0,0,1,706.62,616Zm4.745-1.373a.926.926,0,0,1-.375-1.807l2.37-.69a.925.925,0,1,1,.519,1.777l-2.372.691A.972.972,0,0,1,711.365,614.628Zm4.741-1.384a.925.925,0,0,1-.377-1.806l2.369-.7a.925.925,0,1,1,.523,1.775l-2.371.7A.933.933,0,0,1,716.107,613.244Zm4.738-1.4a.926.926,0,0,1-.379-1.806l2.367-.7a.925.925,0,0,1,.527,1.774l-2.369.7A.9.9,0,0,1,720.845,611.848Zm4.736-1.406a.925.925,0,0,1-.381-1.8l2.366-.707a.925.925,0,1,1,.53,1.773l-2.367.707A.939.939,0,0,1,725.58,610.442Zm-151.642,18.73a.925.925,0,0,1-.929-1.362,13.337,13.337,0,0,1,1.5-2.168.925.925,0,1,1,1.417,1.19,11.539,11.539,0,0,0-1.292,1.865A.923.923,0,0,1,573.938,629.172Zm156.375-20.146a.926.926,0,0,1-.383-1.8l2.364-.712a.925.925,0,1,1,.534,1.772l-2.366.712A.918.918,0,0,1,730.313,609.026Zm4.73-1.427a.925.925,0,0,1-.385-1.8l2.363-.717a.926.926,0,0,1,.538,1.771l-2.365.717A.9.9,0,0,1,735.042,607.6Zm4.727-1.437a.925.925,0,0,1-.386-1.8l2.362-.722a.925.925,0,1,1,.542,1.77l-2.363.723A.934.934,0,0,1,739.769,606.162Zm4.724-1.447a.926.926,0,0,1-.388-1.8l2.361-.726a.925.925,0,1,1,.545,1.769l-2.362.727A.95.95,0,0,1,744.494,604.716Zm-167.44,20.675a.925.925,0,0,1-.738-1.605c.6-.54,1.268-1.083,1.987-1.613a.926.926,0,0,1,1.1,1.491c-.671.494-1.292,1-1.846,1.5A.923.923,0,0,1,577.054,625.391Zm172.162-22.131a.926.926,0,0,1-.39-1.8l2.359-.731a.926.926,0,0,1,.549,1.768l-2.361.732A.95.95,0,0,1,749.215,603.259Zm4.719-1.466a.926.926,0,0,1-.392-1.8l2.358-.736a.925.925,0,0,1,.552,1.766l-2.36.737A.926.926,0,0,1,753.935,601.793Zm4.717-1.476a.925.925,0,0,1-.394-1.8l2.357-.742a.925.925,0,0,1,.556,1.765l-2.359.742A.977.977,0,0,1,758.652,600.318ZM581.014,622.449a.926.926,0,0,1-.61-1.7c.681-.428,1.413-.859,2.175-1.28a.926.926,0,1,1,.9,1.62c-.732.4-1.433.817-2.085,1.227A.918.918,0,0,1,581.014,622.449Zm182.353-23.617a.926.926,0,0,1-.4-1.8l2.356-.747a.925.925,0,0,1,.56,1.764l-2.358.747A.944.944,0,0,1,763.367,598.832Zm4.714-1.5a.926.926,0,0,1-.4-1.8l2.356-.752a.925.925,0,0,1,.564,1.763l-2.358.753A.924.924,0,0,1,768.082,597.335ZM585.335,620.051a.926.926,0,0,1-.528-1.748c.722-.358,1.485-.717,2.268-1.069a.926.926,0,0,1,.759,1.688c-.762.342-1.5.692-2.205,1.04A.928.928,0,0,1,585.335,620.051ZM772.8,595.826a.925.925,0,0,1-.4-1.8l2.357-.76a.925.925,0,1,1,.569,1.761l-2.36.761A.909.909,0,0,1,772.8,595.826Zm4.72-1.525a.926.926,0,0,1-.4-1.8c1.456-.473,2.232-.729,2.233-.729a.926.926,0,1,1,.579,1.758s-.778.256-2.24.731A.919.919,0,0,1,777.516,594.3ZM589.843,618.017a.926.926,0,0,1-.47-1.774c.747-.308,1.527-.619,2.321-.922a.925.925,0,0,1,.661,1.729c-.778.3-1.544.6-2.276.9A.936.936,0,0,1,589.843,618.017Zm4.618-1.77a.926.926,0,0,1-.427-1.79c.764-.272,1.557-.546,2.357-.813a.926.926,0,1,1,.586,1.756c-.789.263-1.57.532-2.321.8A.949.949,0,0,1,594.461,616.248Zm4.692-1.567a.926.926,0,0,1-.393-1.8c.774-.243,1.575-.487,2.381-.725a.925.925,0,0,1,.525,1.775c-.8.236-1.588.477-2.352.717A.912.912,0,0,1,599.153,614.68Zm4.745-1.4a.925.925,0,0,1-.365-1.809c.79-.221,1.6-.44,2.4-.652a.925.925,0,0,1,.473,1.789c-.8.211-1.595.428-2.376.645A.9.9,0,0,1,603.9,613.276Zm4.785-1.265a.926.926,0,0,1-.341-1.816c.794-.2,1.608-.4,2.416-.589a.926.926,0,1,1,.427,1.8c-.8.19-1.607.386-2.394.583A.919.919,0,0,1,608.683,612.011Zm4.819-1.142a.925.925,0,0,1-.319-1.821c.811-.182,1.629-.359,2.433-.529A.925.925,0,1,1,616,610.33c-.8.168-1.606.344-2.41.524C613.56,610.86,613.531,610.865,613.5,610.869Zm4.851-1.022a.925.925,0,0,1-.3-1.826c1.545-.3,2.436-.456,2.473-.463a.925.925,0,0,1,.311,1.824c-.008,0-.908.156-2.427.454Z" transform="translate(-571.819 -591.726)" fill="#ffd920"/>
        </g>
        <g id="Group_46936" data-name="Group 46936" transform="translate(191.196)">
          <path id="Path_31321" data-name="Path 31321" d="M1487.05,577.436l32.25-24.16-31.482,5.936,3.134,5.045-5.624,8.1Z" transform="translate(-1459.535 -547.801)" fill="#edc815"/>
          <path id="Path_31322" data-name="Path 31322" d="M1436.505,553.276l-35.585,11.344-24.18,21.831Z" transform="translate(-1376.741 -547.801)" fill="#ffd920"/>
          <path id="Path_31323" data-name="Path 31323" d="M1486.354,541.637l31.482-5.936-34.427-5.475Z" transform="translate(-1458.072 -530.226)" fill="#ffd920"/>
        </g>
      </g>
      <circle id="Ellipse_4150" data-name="Ellipse 4150" cx="100.5" cy="100.5" r="100.5" transform="translate(94 517)" fill="#f6f8fa"/>
      <g id="Mask_Group_208" data-name="Mask Group 208" transform="translate(93.543 517)" clip-path="url(#clip-path-2)">
        <g id="Group_46943" data-name="Group 46943" transform="translate(20.5 56.607)">
          <rect id="Rectangle_16173" data-name="Rectangle 16173" width="160.366" height="106.446" rx="18.07" transform="translate(0 33.575)" fill="#edc815"/>
          <g id="Group_46929" data-name="Group 46929" transform="translate(4.335)">
            <rect id="Rectangle_16174" data-name="Rectangle 16174" width="129.186" height="65.972" transform="translate(2.489 2.643)" fill="#d6d6d6"/>
            <rect id="Rectangle_16175" data-name="Rectangle 16175" width="129.186" height="65.972" transform="translate(1.801 1.66)" fill="#d6d6d6"/>
            <rect id="Rectangle_16176" data-name="Rectangle 16176" width="129.186" height="65.972" transform="translate(0.884 0.808)" fill="#d6d6d6"/>
            <g id="Group_46928" data-name="Group 46928">
              <rect id="Rectangle_16177" data-name="Rectangle 16177" width="129.186" height="65.972" fill="#edc815"/>
              <path id="Path_31309" data-name="Path 31309" d="M962.391,850.014V906.09h119.078V850.014Zm114.567,51.73H966.9V854.359h110.055Z" transform="translate(-957.337 -845.065)" fill="#fff"/>
              <path id="Path_31310" data-name="Path 31310" d="M962.391,850.014v12.753a10.368,10.368,0,0,0,12.891-12.753Z" transform="translate(-957.337 -845.065)" fill="#fff"/>
              <path id="Path_31311" data-name="Path 31311" d="M1177.652,849.909H1164.9a10.369,10.369,0,0,0,12.753,12.891Z" transform="translate(-1053.519 -845.015)" fill="#fff"/>
              <path id="Path_31312" data-name="Path 31312" d="M1177.652,944.957H1164.9a10.368,10.368,0,0,1,12.753-12.891Z" transform="translate(-1053.519 -883.933)" fill="#82b378"/>
              <path id="Path_31313" data-name="Path 31313" d="M962.391,944.952V932.2a10.368,10.368,0,0,1,12.891,12.753Z" transform="translate(-957.337 -883.983)" fill="#82b378"/>
              <path id="Path_31314" data-name="Path 31314" d="M1077.284,890.822a13.975,13.975,0,1,1-13.975-13.975A13.975,13.975,0,0,1,1077.284,890.822Z" transform="translate(-998.715 -857.836)" fill="#fff"/>
            </g>
          </g>
          <g id="Group_46932" data-name="Group 46932" transform="translate(88.208 9.93)">
            <circle id="Ellipse_4147" data-name="Ellipse 4147" cx="26.548" cy="26.548" r="26.548" transform="translate(0 8.245) rotate(-8.934)" fill="#e2810e"/>
            <path id="Path_31315" data-name="Path 31315" d="M1138.91,867.522a26.547,26.547,0,1,0,29.634,23.051A26.548,26.548,0,0,0,1138.91,867.522Z" transform="translate(-1114.151 -863.229)" fill="#ffb93e"/>
            <g id="Group_46930" data-name="Group 46930" transform="translate(3.9 6.759)">
              <path id="Path_31316" data-name="Path 31316" d="M1147.42,920.6a24.186,24.186,0,1,1,21-27A24.217,24.217,0,0,1,1147.42,920.6Zm-5.82-46.57a22.745,22.745,0,1,0,25.389,19.748A22.772,22.772,0,0,0,1141.6,874.034Z" transform="translate(-1120.231 -872.416)" fill="#ffa412"/>
            </g>
            <g id="Group_46931" data-name="Group 46931" transform="translate(18.159 13.048)">
              <path id="Path_31317" data-name="Path 31317" d="M1161.543,908.869a3.989,3.989,0,0,0-.231-1.387,2.925,2.925,0,0,0-.734-1.084,5.548,5.548,0,0,0-1.308-.892,14.679,14.679,0,0,0-1.954-.794,37.943,37.943,0,0,1-3.6-1.432,12.041,12.041,0,0,1-2.778-1.737,7.1,7.1,0,0,1-1.8-2.315,8,8,0,0,1-.108-6.078,6.717,6.717,0,0,1,1.6-2.3,8.383,8.383,0,0,1,2.5-1.6,11.192,11.192,0,0,1,3.278-.8l-.025-4.015,3.231-.02.025,4.071a10.033,10.033,0,0,1,3.156.9,7.586,7.586,0,0,1,3.955,4.394,10.117,10.117,0,0,1,.557,3.383l-5.837.036a4.922,4.922,0,0,0-1.02-3.361,3.419,3.419,0,0,0-2.683-1.1,4.343,4.343,0,0,0-1.563.263,2.948,2.948,0,0,0-1.076.7,2.736,2.736,0,0,0-.62,1.045,4.036,4.036,0,0,0-.193,1.3,3.678,3.678,0,0,0,.21,1.256,2.728,2.728,0,0,0,.7,1.037,5.538,5.538,0,0,0,1.318.892,18.8,18.8,0,0,0,2.035.859q1.963.719,3.574,1.479a12.187,12.187,0,0,1,2.768,1.755,6.839,6.839,0,0,1,2.457,5.473,7.3,7.3,0,0,1-.557,2.967,6.644,6.644,0,0,1-1.612,2.28,8.108,8.108,0,0,1-2.525,1.554,12.114,12.114,0,0,1-3.3.771l.024,3.732-3.211.02-.023-3.715a13.562,13.562,0,0,1-3.247-.711,8.584,8.584,0,0,1-2.786-1.606,7.682,7.682,0,0,1-1.955-2.661,9.363,9.363,0,0,1-.751-3.86l5.837-.036a5.779,5.779,0,0,0,.388,2.22,3.721,3.721,0,0,0,1.008,1.419,3.609,3.609,0,0,0,1.429.742,6.185,6.185,0,0,0,1.627.205,5.169,5.169,0,0,0,1.665-.254,3.452,3.452,0,0,0,1.2-.683,2.754,2.754,0,0,0,.72-1.027A3.354,3.354,0,0,0,1161.543,908.869Z" transform="translate(-1147.438 -884.417)" fill="#ffa412"/>
            </g>
          </g>
          <path id="Rectangle_16178" data-name="Rectangle 16178" d="M18.069,0H131.814a18.07,18.07,0,0,1,18.07,18.07V88.375a18.07,18.07,0,0,1-18.07,18.07H18.07A18.07,18.07,0,0,1,0,88.375V18.069A18.069,18.069,0,0,1,18.069,0Z" transform="translate(0 41.898)" fill="#ffd920"/>
          <path id="Path_31318" data-name="Path 31318" d="M1183.531,1023.411H1137.02a14.543,14.543,0,0,1-14.543-14.543h0a14.543,14.543,0,0,1,14.543-14.543h46.511Z" transform="translate(-1029.192 -913.747)" fill="#edc815"/>
          <circle id="Ellipse_4148" data-name="Ellipse 4148" cx="11.399" cy="11.399" r="11.399" transform="translate(96.429 83.723)" fill="#fff"/>
        </g>
      </g>
      <path id="Path_31333" data-name="Path 31333" d="M579.237,624.5a.926.926,0,0,1,1.294.2C580.834,625.109,578.517,625.031,579.237,624.5Zm2.711.276a.926.926,0,0,1-.61-1.7c.681-.428,1.413-.859,2.175-1.28a.926.926,0,1,1,.9,1.62c-.732.4-1.433.817-2.085,1.227A.918.918,0,0,1,581.948,624.777Zm4.321-2.4a.926.926,0,0,1-.528-1.748c.722-.358,1.485-.717,2.268-1.069a.926.926,0,0,1,.759,1.688c-.762.342-1.5.692-2.205,1.04A.927.927,0,0,1,586.269,622.379Zm4.507-2.033a.926.926,0,0,1-.47-1.774c.747-.308,1.527-.619,2.321-.922a.925.925,0,0,1,.661,1.729c-.778.3-1.544.6-2.276.9A.936.936,0,0,1,590.776,620.345Zm4.618-1.77a.926.926,0,0,1-.427-1.79c.764-.272,1.557-.546,2.357-.813a.926.926,0,1,1,.586,1.756c-.789.263-1.57.532-2.321.8A.948.948,0,0,1,595.395,618.576Zm4.692-1.567a.926.926,0,0,1-.393-1.8c.774-.243,1.575-.487,2.381-.725a.925.925,0,0,1,.525,1.775c-.8.236-1.588.477-2.352.717A.911.911,0,0,1,600.087,617.008Zm4.745-1.4a.925.925,0,0,1-.365-1.809c.79-.221,1.6-.44,2.4-.652a.925.925,0,0,1,.473,1.789c-.8.211-1.595.428-2.376.645A.894.894,0,0,1,604.832,615.6Zm4.785-1.265a.926.926,0,0,1-.341-1.816c.794-.2,1.608-.4,2.416-.589a.926.926,0,1,1,.427,1.8c-.8.19-1.607.386-2.394.583A.924.924,0,0,1,609.617,614.339Zm4.819-1.142a.925.925,0,0,1-.319-1.821c.811-.182,1.629-.359,2.433-.529a.925.925,0,1,1,.381,1.811c-.8.168-1.606.344-2.41.524C614.494,613.188,614.465,613.193,614.437,613.2Zm4.851-1.022a.925.925,0,0,1-.3-1.826c1.545-.3,2.436-.456,2.473-.463a.925.925,0,0,1,.311,1.824c-.008,0-.908.156-2.427.454Z" transform="translate(-502.7 -46.405)" fill="#ffd920"/>
      <path id="Path_31334" data-name="Path 31334" d="M1.043,12.506a.926.926,0,0,1-.528-1.748C1.237,10.4,2,10.041,2.783,9.689a.926.926,0,0,1,.759,1.688c-.762.342-1.5.692-2.205,1.04A.927.927,0,0,1,1.043,12.506Zm4.507-2.033A.926.926,0,0,1,5.08,8.7c.747-.308,1.527-.619,2.321-.922a.925.925,0,0,1,.661,1.729c-.778.3-1.544.6-2.276.9A.936.936,0,0,1,5.551,10.473ZM10.169,8.7a.926.926,0,0,1-.427-1.79c.764-.272,1.557-.546,2.357-.813a.926.926,0,1,1,.586,1.756c-.789.263-1.57.532-2.321.8A.948.948,0,0,1,10.169,8.7Zm4.692-1.567a.926.926,0,0,1-.393-1.8c.774-.243,1.575-.487,2.381-.725a.925.925,0,0,1,.525,1.775c-.8.236-1.588.477-2.352.717A.911.911,0,0,1,14.861,7.136Zm4.745-1.4a.925.925,0,0,1-.365-1.809c.79-.221,1.6-.44,2.4-.652a.925.925,0,0,1,.473,1.789c-.8.211-1.595.428-2.376.645A.894.894,0,0,1,19.606,5.731Zm4.785-1.265a.926.926,0,0,1-.341-1.816c.794-.2,1.608-.4,2.416-.589a.926.926,0,1,1,.427,1.8c-.8.19-1.607.386-2.394.583A.924.924,0,0,1,24.392,4.466Zm4.819-1.142A.925.925,0,0,1,28.892,1.5c.811-.182,1.629-.359,2.433-.529a.925.925,0,1,1,.381,1.811c-.8.168-1.606.344-2.41.524C29.268,3.315,29.239,3.32,29.211,3.324ZM34.062,2.3a.925.925,0,0,1-.3-1.826C35.313.173,36.2.02,36.241.014a.925.925,0,0,1,.311,1.824c-.008,0-.908.156-2.427.454Z" transform="translate(123.849 552.194) rotate(13)" fill="#ffd920"/>
    </g>
  </g>
</svg>
